<svg width="50" height="53" viewBox="0 0 50 53" fill="none" xmlns="http://www.w3.org/2000/svg">
<path d="M25 53C38.8071 53 50 41.1355 50 26.5C50 11.8645 38.8071 0 25 0C11.1929 0 0 11.8645 0 26.5C0 41.1355 11.1929 53 25 53Z" fill="#693B93"/>
<path d="M14.1566 40.9298L14.0949 31.2008L20.6722 36.9993L27.2126 36.9603C33.7529 36.9213 33.7405 34.976 31.5481 33.0427C29.3556 31.1094 23.8807 27.2507 23.8807 27.2507C23.8807 27.2507 29.3063 23.3261 31.4741 21.3678C33.6418 19.4094 33.6295 17.4636 27.0892 17.5021C20.5489 17.5406 18.3688 17.554 18.3688 17.554L18.4058 23.3915L20.5735 21.4332L24.9338 21.4072L18.4305 27.2831L25.0078 33.0816L20.6476 33.1076L14.0702 27.3091L13.9839 13.6884C13.9839 13.6884 22.7043 13.6371 29.2446 13.5978C35.7849 13.5585 38.2078 17.7816 35.8343 21.3418C33.4607 24.902 29.331 27.2183 29.331 27.2183C29.331 27.2183 33.7032 29.1381 35.9083 33.0167C38.1133 36.8954 35.9576 40.8005 29.4173 40.839C22.877 40.8774 14.1566 40.9298 14.1566 40.9298Z" fill="url(#paint0_linear_27_5)"/>
<defs>
<linearGradient id="paint0_linear_27_5" x1="33.721" y1="13.5319" x2="14.7526" y2="41.1446" gradientUnits="userSpaceOnUse">
<stop offset="0.427885" stop-color="white"/>
<stop offset="1" stop-color="#726DFF" stop-opacity="0.81"/>
</linearGradient>
</defs>
</svg>
