<svg width="273" height="57" viewBox="0 0 273 57" fill="none" xmlns="http://www.w3.org/2000/svg">
<path d="M55.8 44.0001V18.2401H63.32V27.3201L71.12 18.2401H79.68L70.6 28.8001L80.32 44.0001H72.32L65.96 33.6001L63.32 36.5601V44.0001H55.8ZM85.1047 44.0001V18.2401H98.5047C100.611 18.2401 102.331 18.6267 103.665 19.4001C105.025 20.1734 106.038 21.2534 106.705 22.6401C107.371 24.0001 107.705 25.5867 107.705 27.4001C107.705 29.1334 107.265 30.6667 106.385 32.0001C105.531 33.3067 104.385 34.3067 102.945 35.0001C103.238 35.2401 103.491 35.5334 103.705 35.8801C103.918 36.2001 104.158 36.6534 104.425 37.2401L107.385 44.0001H99.5447L96.8247 37.8001C96.6114 37.3201 96.3447 36.9867 96.0247 36.8001C95.7314 36.5867 95.3047 36.4801 94.7447 36.4801H92.6247V44.0001H85.1047ZM92.6247 30.7201H96.5847C97.678 30.7201 98.518 30.4401 99.1047 29.8801C99.718 29.2934 100.025 28.4667 100.025 27.4001C100.025 25.1334 98.958 24.0001 96.8247 24.0001H92.6247V30.7201ZM112.495 44.0001V18.2401H120.015V44.0001H112.495ZM134.068 44.4001C132.335 44.4001 130.695 44.2667 129.148 44.0001C127.601 43.7067 126.281 43.3067 125.188 42.8001V36.6001C126.388 37.1601 127.721 37.6134 129.188 37.9601C130.655 38.3067 132.028 38.4801 133.308 38.4801C134.641 38.4801 135.641 38.3734 136.308 38.1601C137.001 37.9201 137.348 37.4001 137.348 36.6001C137.348 36.0401 137.148 35.6001 136.748 35.2801C136.375 34.9601 135.775 34.6667 134.948 34.4001C134.148 34.1334 133.095 33.8001 131.788 33.4001C130.055 32.8401 128.681 32.2267 127.668 31.5601C126.655 30.8934 125.921 30.0801 125.468 29.1201C125.041 28.1601 124.828 26.9867 124.828 25.6001C124.828 23.0667 125.721 21.1467 127.508 19.8401C129.321 18.5067 132.001 17.8401 135.548 17.8401C136.961 17.8401 138.415 17.9601 139.908 18.2001C141.428 18.4401 142.655 18.7067 143.588 19.0001V25.2401C142.335 24.7334 141.135 24.3734 139.988 24.1601C138.841 23.9467 137.761 23.8401 136.748 23.8401C135.575 23.8401 134.575 23.9334 133.748 24.1201C132.921 24.3067 132.508 24.7867 132.508 25.5601C132.508 26.2267 132.855 26.7201 133.548 27.0401C134.268 27.3334 135.535 27.7201 137.348 28.2001C139.455 28.7601 141.055 29.4401 142.148 30.2401C143.268 31.0401 144.028 31.9734 144.428 33.0401C144.828 34.0801 145.028 35.2667 145.028 36.6001C145.028 38.9467 144.121 40.8401 142.308 42.2801C140.495 43.6934 137.748 44.4001 134.068 44.4001ZM149.816 44.0001V18.2401H157.336V27.8401H166.216V18.2401H173.736V44.0001H166.216V34.4001H157.336V44.0001H149.816ZM179.355 44.0001V18.2401H185.755L195.475 31.8801V18.2401H202.995V44.0001H196.555L186.875 30.4001V44.0001H179.355ZM207.781 44.0001L217.661 18.2401H225.621L235.501 44.0001H227.661L225.501 38.5201H217.741L215.621 44.0001H207.781ZM218.741 33.1201H224.501L221.621 25.5601L218.741 33.1201Z" fill="white"/>
<path d="M25 57C38.8071 57 50 45.1355 50 30.5C50 15.8645 38.8071 4 25 4C11.1929 4 0 15.8645 0 30.5C0 45.1355 11.1929 57 25 57Z" fill="#693B93"/>
<path d="M14.1566 44.9298L14.0949 35.2008L20.6722 40.9993L27.2126 40.9603C33.7529 40.9213 33.7405 38.976 31.5481 37.0427C29.3556 35.1094 23.8807 31.2507 23.8807 31.2507C23.8807 31.2507 29.3063 27.3261 31.4741 25.3678C33.6418 23.4094 33.6295 21.4636 27.0892 21.5021C20.5489 21.5406 18.3688 21.554 18.3688 21.554L18.4058 27.3915L20.5735 25.4332L24.9338 25.4072L18.4305 31.2831L25.0078 37.0816L20.6476 37.1076L14.0702 31.3091L13.9839 17.6884C13.9839 17.6884 22.7043 17.6371 29.2446 17.5978C35.7849 17.5585 38.2078 21.7816 35.8343 25.3418C33.4607 28.902 29.331 31.2183 29.331 31.2183C29.331 31.2183 33.7032 33.1381 35.9083 37.0167C38.1133 40.8954 35.9576 44.8005 29.4173 44.839C22.877 44.8774 14.1566 44.9298 14.1566 44.9298Z" fill="url(#paint0_linear_27_4)"/>
<defs>
<linearGradient id="paint0_linear_27_4" x1="33.721" y1="17.5319" x2="14.7526" y2="45.1446" gradientUnits="userSpaceOnUse">
<stop offset="0.427885" stop-color="white"/>
<stop offset="1" stop-color="#726DFF" stop-opacity="0.81"/>
</linearGradient>
</defs>
</svg>
