<svg width="58" height="53" viewBox="0 0 58 53" fill="none" xmlns="http://www.w3.org/2000/svg">
<ellipse cx="28.9465" cy="26.1781" rx="28.7872" ry="26.0017" transform="rotate(-0.352078 28.9465 26.1781)" fill="black"/>
<path d="M15.8303 46.483L15.7416 32.038L25.9548 40.6425L36.1148 40.5801C46.2748 40.5176 46.2571 37.6293 42.8527 34.7604C39.4482 31.8915 30.9461 26.1662 30.9461 26.1662C30.9461 26.1662 39.3772 20.3354 42.7462 17.4263C46.1151 14.5172 46.0973 11.6282 35.9373 11.6899C25.7773 11.7516 22.3906 11.7731 22.3906 11.7731L22.4439 20.4402L25.8128 17.5311L32.5861 17.4894L22.4794 26.2182L32.6927 34.8228L25.9193 34.8645L15.7061 26.2598L15.5818 6.03671C15.5818 6.03671 29.1285 5.95442 39.2885 5.89152C49.4485 5.82863 53.2092 12.0971 49.5195 17.3847C45.8297 22.6722 39.4127 26.1143 39.4127 26.1143C39.4127 26.1143 46.2034 28.9616 49.626 34.7188C53.0486 40.476 49.697 46.2756 39.537 46.3373C29.377 46.399 15.8303 46.483 15.8303 46.483Z" fill="url(#paint0_linear_18_2)"/>
<path d="M22.3907 11.7727L29.164 11.7311L35.9018 5.91184L29.1285 5.95346L22.3907 11.7727Z" fill="black"/>
<path d="M39.5377 46.3361L32.7289 40.6001L25.9556 40.6417L32.7644 46.3777L39.5377 46.3361Z" fill="black"/>
<defs>
<linearGradient id="paint0_linear_18_2" x1="49.4307" y1="2.94029" x2="22.8228" y2="50.4036" gradientUnits="userSpaceOnUse">
<stop offset="0.238316" stop-color="#7F35F4"/>
<stop offset="0.502072" stop-color="#BFAADF" stop-opacity="0.73"/>
<stop offset="0.734376" stop-color="#7F35F4"/>
</linearGradient>
</defs>
</svg>
