<svg width="30" height="30" viewBox="0 0 30 30" fill="none" xmlns="http://www.w3.org/2000/svg">
<mask id="path-1-inside-1_22_61" fill="white">
<path d="M26.4685 24.6682C28.9509 21.7236 30.2055 17.937 29.9725 14.0927C29.7396 10.2483 28.0368 6.64093 25.217 4.01763C22.3972 1.39434 18.6764 -0.043833 14.8253 0.00101713C10.9742 0.0458673 7.28792 1.5703 4.52998 4.25856C1.77203 6.94681 0.153773 10.5929 0.0103976 14.4416C-0.132978 18.2903 1.20952 22.0467 3.7598 24.9327C6.31009 27.8187 9.87275 29.6132 13.7098 29.9444C17.5469 30.2757 21.3644 29.1183 24.3716 26.7121L20.4675 21.833C18.7131 23.2368 16.4859 23.912 14.2473 23.7188C12.0087 23.5255 9.9302 22.4786 8.44233 20.7948C6.95446 19.1111 6.17123 16.9196 6.25488 14.6742C6.33853 12.4288 7.28264 10.3017 8.89166 8.73331C10.5007 7.16495 12.6513 6.27557 14.8981 6.24941C17.1449 6.22324 19.3156 7.06229 20.9607 8.59275C22.6058 10.1232 23.5992 12.2278 23.7352 14.4706C23.8711 16.7135 23.1391 18.9226 21.6908 20.6406L26.4685 24.6682Z"/>
</mask>
<path d="M26.4685 24.6682C28.9509 21.7236 30.2055 17.937 29.9725 14.0927C29.7396 10.2483 28.0368 6.64093 25.217 4.01763C22.3972 1.39434 18.6764 -0.043833 14.8253 0.00101713C10.9742 0.0458673 7.28792 1.5703 4.52998 4.25856C1.77203 6.94681 0.153773 10.5929 0.0103976 14.4416C-0.132978 18.2903 1.20952 22.0467 3.7598 24.9327C6.31009 27.8187 9.87275 29.6132 13.7098 29.9444C17.5469 30.2757 21.3644 29.1183 24.3716 26.7121L20.4675 21.833C18.7131 23.2368 16.4859 23.912 14.2473 23.7188C12.0087 23.5255 9.9302 22.4786 8.44233 20.7948C6.95446 19.1111 6.17123 16.9196 6.25488 14.6742C6.33853 12.4288 7.28264 10.3017 8.89166 8.73331C10.5007 7.16495 12.6513 6.27557 14.8981 6.24941C17.1449 6.22324 19.3156 7.06229 20.9607 8.59275C22.6058 10.1232 23.5992 12.2278 23.7352 14.4706C23.8711 16.7135 23.1391 18.9226 21.6908 20.6406L26.4685 24.6682Z" stroke="#C553CC" stroke-width="2" mask="url(#path-1-inside-1_22_61)"/>
<path d="M15.4982 12.9472C15.7862 12.9472 15.9302 13.248 15.9302 13.8496C15.9302 13.9136 15.927 13.9808 15.9206 14.0512C15.9974 14.0768 16.1094 14.0896 16.2566 14.0896C16.4038 14.0896 16.535 14.0288 16.6502 13.9072C16.7654 13.7856 16.823 13.6736 16.823 13.5712C16.823 13.5456 16.839 13.5296 16.871 13.5232C16.903 13.5104 16.9318 13.5104 16.9574 13.5232C16.9894 13.536 17.0054 13.5552 17.0054 13.5808C17.0054 13.7664 16.9254 13.9424 16.7654 14.1088C16.6118 14.2752 16.4038 14.3584 16.1414 14.3584C16.071 14.3584 15.991 14.352 15.9014 14.3392C15.8502 14.7744 15.7478 15.2064 15.5942 15.6352C15.4406 16.0576 15.2358 16.4256 14.9798 16.7392C14.7302 17.0464 14.471 17.2 14.2022 17.2C13.5686 17.2 13.2518 16.7616 13.2518 15.8848C13.2518 15.3408 13.367 14.56 13.5974 13.5424C13.8342 12.5184 14.1478 11.568 14.5382 10.6912C14.9286 9.81441 15.2998 9.37601 15.6518 9.37601C15.9206 9.37601 16.055 9.54241 16.055 9.87521C16.055 9.99041 16.039 10.1248 16.007 10.2784C15.8854 10.8864 15.6038 11.5136 15.1622 12.16C14.8294 12.6464 14.5254 12.9472 14.2502 13.0624C13.9238 14.4896 13.7606 15.4944 13.7606 16.0768C13.7606 16.6528 13.9142 16.9408 14.2214 16.9408C14.5542 16.9408 14.855 16.656 15.1238 16.0864C15.399 15.5168 15.5846 14.9088 15.6806 14.2624C15.4758 14.16 15.3318 14 15.2486 13.7824C15.1974 13.6544 15.1718 13.5456 15.1718 13.456C15.1718 13.36 15.1846 13.2768 15.2102 13.2064C15.2614 13.0336 15.3574 12.9472 15.4982 12.9472ZM15.8438 9.89441C15.8438 9.70241 15.7862 9.60321 15.671 9.59681C15.4726 9.59681 15.2518 9.90081 15.0086 10.5088C14.7654 11.1168 14.535 11.872 14.3174 12.7744C14.6694 12.544 15.0118 12.0832 15.3446 11.392C15.6774 10.7008 15.8438 10.2016 15.8438 9.89441Z" fill="white"/>
</svg>
