<svg width="25" height="36" viewBox="0 0 25 36" fill="none" xmlns="http://www.w3.org/2000/svg">
<path d="M13.93 11.4944C14.506 11.4944 14.794 12.096 14.794 13.2992C14.794 13.4272 14.7876 13.5616 14.7748 13.7024C14.9284 13.7536 15.1524 13.7792 15.4468 13.7792C15.7412 13.7792 16.0036 13.6576 16.234 13.4144C16.4644 13.1712 16.5796 12.9472 16.5796 12.7424C16.5796 12.6912 16.6116 12.6592 16.6756 12.6464C16.7396 12.6208 16.7972 12.6208 16.8484 12.6464C16.9124 12.672 16.9444 12.7104 16.9444 12.7616C16.9444 13.1328 16.7844 13.4848 16.4644 13.8176C16.1572 14.1504 15.7412 14.3168 15.2164 14.3168C15.0756 14.3168 14.9156 14.304 14.7364 14.2784C14.634 15.1488 14.4292 16.0128 14.122 16.8704C13.8148 17.7152 13.4052 18.4512 12.8932 19.0784C12.394 19.6928 11.8756 20 11.338 20C10.0708 20 9.43718 19.1232 9.43718 17.3696C9.43718 16.2816 9.66758 14.72 10.1284 12.6848C10.602 10.6368 11.2292 8.736 12.01 6.9824C12.7908 5.2288 13.5332 4.352 14.2372 4.352C14.7748 4.352 15.0436 4.6848 15.0436 5.3504C15.0436 5.5808 15.0116 5.8496 14.9476 6.1568C14.7044 7.3728 14.1412 8.6272 13.258 9.92C12.5924 10.8928 11.9844 11.4944 11.434 11.7248C10.7812 14.5792 10.4548 16.5888 10.4548 17.7536C10.4548 18.9056 10.762 19.4816 11.3764 19.4816C12.042 19.4816 12.6436 18.912 13.1812 17.7728C13.7316 16.6336 14.1028 15.4176 14.2948 14.1248C13.8852 13.92 13.5972 13.6 13.4308 13.1648C13.3284 12.9088 13.2772 12.6912 13.2772 12.512C13.2772 12.32 13.3028 12.1536 13.354 12.0128C13.4564 11.6672 13.6484 11.4944 13.93 11.4944ZM14.6212 5.3888C14.6212 5.0048 14.506 4.8064 14.2756 4.7936C13.8788 4.7936 13.4372 5.4016 12.9508 6.6176C12.4644 7.8336 12.0036 9.344 11.5684 11.1488C12.2724 10.688 12.9572 9.7664 13.6228 8.384C14.2884 7.0016 14.6212 6.0032 14.6212 5.3888Z" fill="white"/>
<path d="M12.5 2.3067C19.1887 2.3067 24.5 7.07285 24.5 12.8233C24.4998 18.5736 19.1885 23.3389 12.5 23.3389C5.81149 23.3389 0.500227 18.5736 0.5 12.8233C0.5 7.07285 5.81134 2.3067 12.5 2.3067Z" stroke="white"/>
</svg>
