<svg width="30" height="30" viewBox="0 0 30 30" fill="none" xmlns="http://www.w3.org/2000/svg">
<mask id="path-1-inside-1_22_61" fill="white">
<path d="M26.4685 24.6682C28.9509 21.7236 30.2055 17.937 29.9725 14.0927C29.7396 10.2483 28.0368 6.64093 25.217 4.01763C22.3972 1.39434 18.6764 -0.043833 14.8253 0.00101713C10.9742 0.0458673 7.28792 1.5703 4.52998 4.25856C1.77203 6.94681 0.153773 10.5929 0.0103976 14.4416C-0.132978 18.2903 1.20952 22.0467 3.7598 24.9327C6.31009 27.8187 9.87275 29.6132 13.7098 29.9444C17.5469 30.2757 21.3644 29.1183 24.3716 26.7121L20.4675 21.833C18.7131 23.2368 16.4859 23.912 14.2473 23.7188C12.0087 23.5255 9.9302 22.4786 8.44233 20.7948C6.95446 19.1111 6.17123 16.9196 6.25488 14.6742C6.33853 12.4288 7.28264 10.3017 8.89166 8.73331C10.5007 7.16495 12.6513 6.27557 14.8981 6.24941C17.1449 6.22324 19.3156 7.06229 20.9607 8.59275C22.6058 10.1232 23.5992 12.2278 23.7352 14.4706C23.8711 16.7135 23.1391 18.9226 21.6908 20.6406L26.4685 24.6682Z"/>
</mask>
<path d="M26.4685 24.6682C28.9509 21.7236 30.2055 17.937 29.9725 14.0927C29.7396 10.2483 28.0368 6.64093 25.217 4.01763C22.3972 1.39434 18.6764 -0.043833 14.8253 0.00101713C10.9742 0.0458673 7.28792 1.5703 4.52998 4.25856C1.77203 6.94681 0.153773 10.5929 0.0103976 14.4416C-0.132978 18.2903 1.20952 22.0467 3.7598 24.9327C6.31009 27.8187 9.87275 29.6132 13.7098 29.9444C17.5469 30.2757 21.3644 29.1183 24.3716 26.7121L20.4675 21.833C18.7131 23.2368 16.4859 23.912 14.2473 23.7188C12.0087 23.5255 9.9302 22.4786 8.44233 20.7948C6.95446 19.1111 6.17123 16.9196 6.25488 14.6742C6.33853 12.4288 7.28264 10.3017 8.89166 8.73331C10.5007 7.16495 12.6513 6.27557 14.8981 6.24941C17.1449 6.22324 19.3156 7.06229 20.9607 8.59275C22.6058 10.1232 23.5992 12.2278 23.7352 14.4706C23.8711 16.7135 23.1391 18.9226 21.6908 20.6406L26.4685 24.6682Z" stroke="#C553CC" stroke-width="2" mask="url(#path-1-inside-1_22_61)"/>
<path d="M16.1713 14.4944C16.7473 14.4944 17.0353 15.096 17.0353 16.2992C17.0353 16.4272 17.0289 16.5616 17.0161 16.7024C17.1697 16.7536 17.3937 16.7792 17.6881 16.7792C17.9825 16.7792 18.2449 16.6576 18.4753 16.4144C18.7057 16.1712 18.8209 15.9472 18.8209 15.7424C18.8209 15.6912 18.8529 15.6592 18.9169 15.6464C18.9809 15.6208 19.0385 15.6208 19.0897 15.6464C19.1537 15.672 19.1857 15.7104 19.1857 15.7616C19.1857 16.1328 19.0257 16.4848 18.7057 16.8176C18.3985 17.1504 17.9825 17.3168 17.4577 17.3168C17.3169 17.3168 17.1569 17.304 16.9777 17.2784C16.8753 18.1488 16.6705 19.0128 16.3633 19.8704C16.0561 20.7152 15.6465 21.4512 15.1345 22.0784C14.6353 22.6928 14.1169 23 13.5793 23C12.3121 23 11.6785 22.1232 11.6785 20.3696C11.6785 19.2816 11.9089 17.72 12.3697 15.6848C12.8433 13.6368 13.4705 11.736 14.2513 9.9824C15.0321 8.2288 15.7745 7.352 16.4785 7.352C17.0161 7.352 17.2849 7.6848 17.2849 8.3504C17.2849 8.5808 17.2529 8.8496 17.1889 9.1568C16.9457 10.3728 16.3825 11.6272 15.4993 12.92C14.8337 13.8928 14.2257 14.4944 13.6753 14.7248C13.0225 17.5792 12.6961 19.5888 12.6961 20.7536C12.6961 21.9056 13.0033 22.4816 13.6177 22.4816C14.2833 22.4816 14.8849 21.912 15.4225 20.7728C15.9729 19.6336 16.3441 18.4176 16.5361 17.1248C16.1265 16.92 15.8385 16.6 15.6721 16.1648C15.5697 15.9088 15.5185 15.6912 15.5185 15.512C15.5185 15.32 15.5441 15.1536 15.5953 15.0128C15.6977 14.6672 15.8897 14.4944 16.1713 14.4944ZM16.8625 8.3888C16.8625 8.0048 16.7473 7.8064 16.5169 7.7936C16.1201 7.7936 15.6785 8.4016 15.1921 9.6176C14.7057 10.8336 14.2449 12.344 13.8097 14.1488C14.5137 13.688 15.1985 12.7664 15.8641 11.384C16.5297 10.0016 16.8625 9.0032 16.8625 8.3888Z" fill="white"/>
</svg>
